<svg xmlns="http://www.w3.org/2000/svg" viewBox="0 0 88.61 88.97"><defs><style>.cls-1{isolation:isolate;}.cls-2{fill:#fff;}.cls-3{fill:#ce1368;mix-blend-mode:darken;}</style></defs><g class="cls-1"><g id="Layer_2" data-name="Layer 2"><g id="Layer_1-2" data-name="Layer 1"><path class="cls-2" d="M55.94,5.88A36.18,36.18,0,1,0,66.49,56,36.17,36.17,0,0,0,55.94,5.88ZM25.65,52.34a19.29,19.29,0,1,1,26.69-5.62A19.28,19.28,0,0,1,25.65,52.34Z"/><path class="cls-3" d="M77.1,42.4a25.34,25.34,0,1,0,7.39,35.07A25.33,25.33,0,0,0,77.1,42.4ZM58.72,70.6a8.32,8.32,0,1,1,11.51-2.43A8.33,8.33,0,0,1,58.72,70.6Z"/></g></g></g></svg>